# xmcd
#
# Track frame offsets:
# 150
# 11388
# 21235
# 31933
# 42285
# 52635
# 62238
# 74260
# 85213
# 94998
# 106573
# 118388
# 129353
# 139928
# 150378
# 159795
# 168530
# 178875
# 191950
# 204240
# 219030
# 230683
# 243878
# 254693
#
# Disc length: 3537 seconds
#
#
# Revision: 0
# Processed by: cddbd v1.4PL0 Copyright (c) Steve Scherf et al.
# Submitted via: FreeRIP 2.30 
#
DISCID=410dcf18
DTITLE=Dolly Parton - The World Of Dolly Parton
DYEAR=1993
DGENRE=Country
TTITLE0=Dumb Blond
TTITLE1=Your Ole Handy Man
TTITLE2=I Don't Want To Throw Rice
TTITLE3=Put I Off Until Tomorrow
TTITLE4=I Wasted My Tears
TTITLE5=Something Fishy
TTITLE6=Fuel To The Flame
TTITLE7=The Giving And The Taking
TTITLE8=I'm In No Condition
TTITLE9=The Company You Keep
TTITLE10=I've Lived My Life
TTITLE11=The Little Things
TTITLE12=Why, Why, Why
TTITLE13=I Wound Ease
TTITLE14=I Don't Want You Around Me Anymore
TTITLE15=Hillbilly Willy
TTITLE16=This Boy Has Been Hurt
TTITLE17=Daddy Won't Be Home Anymore
TTITLE18=As Long As I Love
TTITLE19=A Habit I Can't Break
TTITLE20=I'm Not Worth The Tears
TTITLE21=I Don't Trust Me Around You
TTITLE22=I Couldn't Wait Forever
TTITLE23=Too Lonely Too Long
EXTD=
EXTT0=
EXTT1=
EXTT2=
EXTT3=
EXTT4=
EXTT5=
EXTT6=
EXTT7=
EXTT8=
EXTT9=
EXTT10=
EXTT11=
EXTT12=
EXTT13=
EXTT14=
EXTT15=
EXTT16=
EXTT17=
EXTT18=
EXTT19=
EXTT20=
EXTT21=
EXTT22=
EXTT23=
PLAYORDER=
